<svg width="40" height="42" viewBox="0 0 40 42" fill="none" xmlns="http://www.w3.org/2000/svg">
<g opacity="0.8">
<path d="M39.8672 39.8752C39.9392 41.0266 39.0247 42 37.8711 42H2.0764C0.942444 42 0.0353169 41.0582 0.0778105 39.9251L1.42781 3.92506C1.46811 2.85041 2.351 2 3.42641 2H35.6211C36.6772 2 37.5513 2.82117 37.6172 3.87524L39.8672 39.8752Z" fill="url(#paint0_linear_86_19)"/>
<rect x="40" y="42" width="40" height="8" rx="2" transform="rotate(180 40 42)" fill="url(#paint1_linear_86_19)"/>
<rect x="36" y="2" width="4" height="2" transform="rotate(180 36 2)" fill="#223B4D"/>
<rect x="9" y="2" width="4" height="2" transform="rotate(180 9 2)" fill="#223B4D"/>
</g>
<defs>
<linearGradient id="paint0_linear_86_19" x1="20" y1="42" x2="20" y2="2" gradientUnits="userSpaceOnUse">
<stop offset="0.0885417" stop-color="#D9D9D9" stop-opacity="0"/>
<stop offset="0.994792" stop-color="#A9C0D0"/>
</linearGradient>
<linearGradient id="paint1_linear_86_19" x1="60" y1="42" x2="60" y2="50" gradientUnits="userSpaceOnUse">
<stop offset="0.0572917" stop-color="#D9D9D9" stop-opacity="0"/>
<stop offset="0.96875" stop-color="#223B4D"/>
</linearGradient>
</defs>
</svg>
