<svg width="42" height="40" viewBox="0 0 42 40" fill="none" xmlns="http://www.w3.org/2000/svg">
<path d="M2.12476 39.8672C0.973364 39.9392 0 39.0247 0 37.8711L0 2.0764C0 0.942444 0.941784 0.0353169 2.07495 0.0778105L38.0749 1.42781C39.1496 1.46811 40 2.351 40 3.42641L40 35.6211C40 36.6772 39.1788 37.5513 38.1248 37.6172L2.12476 39.8672Z" fill="url(#paint0_linear_86_9)"/>
<rect y="40" width="40" height="8" rx="2" transform="rotate(-90 0 40)" fill="url(#paint1_linear_86_9)"/>
<rect x="40" y="36" width="4" height="2" transform="rotate(-90 40 36)" fill="#223B4D"/>
<rect x="40" y="9" width="4" height="2" transform="rotate(-90 40 9)" fill="#223B4D"/>
<defs>
<linearGradient id="paint0_linear_86_9" x1="0" y1="20" x2="40" y2="20" gradientUnits="userSpaceOnUse">
<stop offset="0.0885417" stop-color="#D9D9D9" stop-opacity="0"/>
<stop offset="0.994792" stop-color="#A9C0D0"/>
</linearGradient>
<linearGradient id="paint1_linear_86_9" x1="20" y1="40" x2="20" y2="48" gradientUnits="userSpaceOnUse">
<stop offset="0.0572917" stop-color="#D9D9D9" stop-opacity="0"/>
<stop offset="0.96875" stop-color="#223B4D"/>
</linearGradient>
</defs>
</svg>
