<svg width="42" height="40" viewBox="0 0 42 40" fill="none" xmlns="http://www.w3.org/2000/svg">
<path d="M39.8752 0.132798C41.0266 0.0608353 42 0.97526 42 2.1289V37.9236C42 39.0576 41.0582 39.9647 39.9251 39.9222L3.92506 38.5722C2.85041 38.5319 2 37.649 2 36.5736V4.3789C2 3.32278 2.82117 2.44868 3.87524 2.3828L39.8752 0.132798Z" fill="url(#paint0_linear_86_14)"/>
<rect x="42" width="40" height="8" rx="2" transform="rotate(90 42 0)" fill="url(#paint1_linear_86_14)"/>
<rect x="2" y="4" width="4" height="2" transform="rotate(90 2 4)" fill="#223B4D"/>
<rect x="2" y="31" width="4" height="2" transform="rotate(90 2 31)" fill="#223B4D"/>
<defs>
<linearGradient id="paint0_linear_86_14" x1="42" y1="20" x2="2" y2="20" gradientUnits="userSpaceOnUse">
<stop offset="0.0885417" stop-color="#D9D9D9" stop-opacity="0"/>
<stop offset="0.994792" stop-color="#A9C0D0"/>
</linearGradient>
<linearGradient id="paint1_linear_86_14" x1="62" y1="0" x2="62" y2="8" gradientUnits="userSpaceOnUse">
<stop offset="0.0572917" stop-color="#D9D9D9" stop-opacity="0"/>
<stop offset="0.96875" stop-color="#223B4D"/>
</linearGradient>
</defs>
</svg>
